<svg fill="#000000" xmlns="http://www.w3.org/2000/svg"  viewBox="0 0 24 24" width="48px" height="48px"><path d="M 19 2 L 5 2 C 3.34375 2 2 3.347656 2 5 L 2 19 C 2 20.652344 3.34375 22 5 22 L 19 22 C 20.652344 22 22 20.652344 22 19 L 22 5 C 22 3.347656 20.652344 2 19 2 Z M 16.5 5 C 17.878906 5 19 6.117188 19 7.5 C 19 8.882813 17.878906 10 16.5 10 C 15.117188 10 14 8.882813 14 7.5 C 14 6.117188 15.117188 5 16.5 5 Z M 11 6 C 12.105469 6 13 6.894531 13 8 C 13 9.105469 12.105469 10 11 10 C 9.894531 10 9 9.105469 9 8 C 9 6.894531 9.894531 6 11 6 Z M 6.5 7 C 7.328125 7 8 7.671875 8 8.5 C 8 9.328125 7.328125 10 6.5 10 C 5.671875 10 5 9.328125 5 8.5 C 5 7.671875 5.671875 7 6.5 7 Z M 20 19 L 13.027344 19 L 13.027344 18 L 8.027344 18 L 8.027344 17 L 4 17 L 4 13.996094 C 4 13.996094 3.976563 11.007813 6.5 11 C 7.65625 10.996094 8.273438 11.636719 8.605469 12.328125 C 9.027344 11.617188 9.753906 11.003906 11.011719 11 C 12.476563 10.996094 13.222656 11.839844 13.601563 12.695313 C 14.074219 11.8125 14.9375 11.011719 16.511719 11.007813 C 19.996094 10.996094 19.996094 14.996094 19.996094 14.996094 L 19.996094 19 Z"/></svg>